<?xml version="1.0" encoding="iso-8859-1"?>
<!-- Generator: Adobe Illustrator 19.0.0, SVG Export Plug-In . SVG Version: 6.00 Build 0)  -->
<svg version="1.1" id="Capa_1" xmlns="http://www.w3.org/2000/svg" xmlns:xlink="http://www.w3.org/1999/xlink" x="0px" y="0px"
	 viewBox="0 0 480 480" style="enable-background:new 0 0 480 480;" xml:space="preserve">
<g>
	<g>
		<path d="M440,40H40C17.92,40.026,0.026,57.92,0,80v240c0.026,22.08,17.92,39.974,40,40h143.688
			c-1.486,21.058-9.324,41.17-22.48,57.68L156.16,424H128c-4.418,0-8,3.582-8,8s3.582,8,8,8h224c4.418,0,8-3.582,8-8s-3.582-8-8-8
			h-28.16l-5.048-6.32c-13.142-16.516-20.971-36.626-22.456-57.68H440c22.08-0.026,39.974-17.92,40-40V80
			C479.974,57.92,462.08,40.026,440,40z M40,56h400c10.134,0.042,19.15,6.445,22.528,16H17.472C20.85,62.445,29.866,56.042,40,56z
			 M303.472,424H176.528c13.709-18.668,21.762-40.884,23.2-64h80.48C281.649,383.126,289.726,405.347,303.472,424z M464,320
			c0,13.255-10.745,24-24,24H40c-13.255,0-24-10.745-24-24v-8h448V320z M464,296H16V88h448V296z"/>
	</g>
</g>
<g>
	<g>
		<path d="M256,320h-32c-4.418,0-8,3.582-8,8s3.582,8,8,8h32c4.418,0,8-3.582,8-8S260.418,320,256,320z"/>
	</g>
</g>
<g>
</g>
<g>
</g>
<g>
</g>
<g>
</g>
<g>
</g>
<g>
</g>
<g>
</g>
<g>
</g>
<g>
</g>
<g>
</g>
<g>
</g>
<g>
</g>
<g>
</g>
<g>
</g>
<g>
</g>
</svg>
