<svg width="780" height="440" viewBox="0 0 780 440" fill="none" xmlns="http://www.w3.org/2000/svg">
<g clip-path="url(#clip0_150_70)">
<rect width="780" height="440" fill="white"/>
<path d="M415 197.5H402.5V285C402.5 288.315 403.817 291.495 406.161 293.839C408.505 296.183 411.685 297.5 415 297.5H502.5V285H415V197.5ZM515 172.5H440C436.685 172.5 433.505 173.817 431.161 176.161C428.817 178.505 427.5 181.685 427.5 185V260C427.5 263.315 428.817 266.495 431.161 268.839C433.505 271.183 436.685 272.5 440 272.5H515C518.315 272.5 521.495 271.183 523.839 268.839C526.183 266.495 527.5 263.315 527.5 260V185C527.5 181.685 526.183 178.505 523.839 176.161C521.495 173.817 518.315 172.5 515 172.5ZM465 250.625V194.375L502.5 222.5L465 250.625Z" fill="#9B9999"/>
<rect x="150" width="630" height="60" fill="#E6E6E6" fill-opacity="0.82"/>
<rect y="440" width="440" height="150" transform="rotate(-90 0 440)" fill="#E0E0E0"/>
<path d="M407.375 12.625H373.625C371.75 12.625 369.875 14.5 369.875 16.375V42.625C369.875 43.6196 370.27 44.5734 370.973 45.2766C371.677 45.9799 372.63 46.375 373.625 46.375H407.375C409.25 46.375 411.125 44.5 411.125 42.625V16.375C411.125 14.5 409.25 12.625 407.375 12.625ZM377.375 38.875L383.938 30.4375L388.625 36.0625L395.188 27.625L403.625 38.875H377.375Z" fill="#9B9999"/>
<rect x="150" y="380" width="630" height="60" fill="#E6E6E6" fill-opacity="0.82"/>
<rect x="2" y="2" width="776" height="436" stroke="#9B9999" stroke-width="4"/>
</g>
<defs>
<clipPath id="clip0_150_70">
<rect width="780" height="440" fill="white"/>
</clipPath>
</defs>
</svg>
