<svg width="780" height="440" viewBox="0 0 780 440" fill="none" xmlns="http://www.w3.org/2000/svg">
<g clip-path="url(#clip0_150_58)">
<rect width="780" height="440" fill="white"/>
<path d="M415 212.5H402.5V300C402.5 303.315 403.817 306.495 406.161 308.839C408.505 311.183 411.685 312.5 415 312.5H502.5V300H415V212.5ZM515 187.5H440C436.685 187.5 433.505 188.817 431.161 191.161C428.817 193.505 427.5 196.685 427.5 200V275C427.5 278.315 428.817 281.495 431.161 283.839C433.505 286.183 436.685 287.5 440 287.5H515C518.315 287.5 521.495 286.183 523.839 283.839C526.183 281.495 527.5 278.315 527.5 275V200C527.5 196.685 526.183 193.505 523.839 191.161C521.495 188.817 518.315 187.5 515 187.5ZM465 265.625V209.375L502.5 237.5L465 265.625Z" fill="#9B9999"/>
<rect x="150" width="630" height="60" fill="#E6E6E6" fill-opacity="0.82"/>
<rect y="440" width="440" height="150" transform="rotate(-90 0 440)" fill="#E0E0E0"/>
<path d="M407.375 12.625H373.625C371.75 12.625 369.875 14.5 369.875 16.375V42.625C369.875 43.6196 370.27 44.5734 370.973 45.2766C371.677 45.9799 372.63 46.375 373.625 46.375H407.375C409.25 46.375 411.125 44.5 411.125 42.625V16.375C411.125 14.5 409.25 12.625 407.375 12.625ZM377.375 38.875L383.938 30.4375L388.625 36.0625L395.188 27.625L403.625 38.875H377.375Z" fill="#9B9999"/>
<rect x="2" y="2" width="776" height="436" stroke="#9B9999" stroke-width="4"/>
</g>
<defs>
<clipPath id="clip0_150_58">
<rect width="780" height="440" fill="white"/>
</clipPath>
</defs>
</svg>
