<svg width="780" height="440" viewBox="0 0 780 440" fill="none" xmlns="http://www.w3.org/2000/svg">
<g clip-path="url(#clip0_150_2)">
<rect width="780" height="440" fill="white"/>
<path d="M340 182.5H327.5V270C327.5 273.315 328.817 276.495 331.161 278.839C333.505 281.183 336.685 282.5 340 282.5H427.5V270H340V182.5ZM440 157.5H365C361.685 157.5 358.505 158.817 356.161 161.161C353.817 163.505 352.5 166.685 352.5 170V245C352.5 248.315 353.817 251.495 356.161 253.839C358.505 256.183 361.685 257.5 365 257.5H440C443.315 257.5 446.495 256.183 448.839 253.839C451.183 251.495 452.5 248.315 452.5 245V170C452.5 166.685 451.183 163.505 448.839 161.161C446.495 158.817 443.315 157.5 440 157.5ZM390 235.625V179.375L427.5 207.5L390 235.625Z" fill="#9B9999"/>
<rect x="2" y="2" width="776" height="436" stroke="#9B9999" stroke-width="4"/>
</g>
<defs>
<clipPath id="clip0_150_2">
<rect width="780" height="440" fill="white"/>
</clipPath>
</defs>
</svg>
