<svg width="780" height="440" viewBox="0 0 780 440" fill="none" xmlns="http://www.w3.org/2000/svg">
<g clip-path="url(#clip0_150_30)">
<rect width="780" height="440" fill="white"/>
<path d="M340 152.5H327.5V240C327.5 243.315 328.817 246.495 331.161 248.839C333.505 251.183 336.685 252.5 340 252.5H427.5V240H340V152.5ZM440 127.5H365C361.685 127.5 358.505 128.817 356.161 131.161C353.817 133.505 352.5 136.685 352.5 140V215C352.5 218.315 353.817 221.495 356.161 223.839C358.505 226.183 361.685 227.5 365 227.5H440C443.315 227.5 446.495 226.183 448.839 223.839C451.183 221.495 452.5 218.315 452.5 215V140C452.5 136.685 451.183 133.505 448.839 131.161C446.495 128.817 443.315 127.5 440 127.5ZM390 205.625V149.375L427.5 177.5L390 205.625Z" fill="#9B9999"/>
<rect y="380" width="780" height="60" fill="#E6E6E6" fill-opacity="0.82"/>
<rect x="2" y="2" width="776" height="436" stroke="#9B9999" stroke-width="4"/>
</g>
<defs>
<clipPath id="clip0_150_30">
<rect width="780" height="440" fill="white"/>
</clipPath>
</defs>
</svg>
