<svg width="780" height="440" viewBox="0 0 780 440" fill="none" xmlns="http://www.w3.org/2000/svg">
<g clip-path="url(#clip0_150_38)">
<rect width="780" height="440" fill="white"/>
<path d="M415 152.5H402.5V240C402.5 243.315 403.817 246.495 406.161 248.839C408.505 251.183 411.685 252.5 415 252.5H502.5V240H415V152.5ZM515 127.5H440C436.685 127.5 433.505 128.817 431.161 131.161C428.817 133.505 427.5 136.685 427.5 140V215C427.5 218.315 428.817 221.495 431.161 223.839C433.505 226.183 436.685 227.5 440 227.5H515C518.315 227.5 521.495 226.183 523.839 223.839C526.183 221.495 527.5 218.315 527.5 215V140C527.5 136.685 526.183 133.505 523.839 131.161C521.495 128.817 518.315 127.5 515 127.5ZM465 205.625V149.375L502.5 177.5L465 205.625Z" fill="#9B9999"/>
<rect x="150" y="380" width="630" height="60" fill="#E6E6E6" fill-opacity="0.82"/>
<rect y="440" width="440" height="150" transform="rotate(-90 0 440)" fill="#E0E0E0"/>
<rect x="2" y="2" width="776" height="436" stroke="#9B9999" stroke-width="4"/>
</g>
<defs>
<clipPath id="clip0_150_38">
<rect width="780" height="440" fill="white"/>
</clipPath>
</defs>
</svg>
