<svg width="780" height="440" viewBox="0 0 780 440" fill="none" xmlns="http://www.w3.org/2000/svg">
<g clip-path="url(#clip0_150_27)">
<rect width="780" height="440" fill="white"/>
<path d="M446.25 251.25H358.75V163.75H446.25M446.25 151.25H358.75C355.435 151.25 352.255 152.567 349.911 154.911C347.567 157.255 346.25 160.435 346.25 163.75V251.25C346.25 254.565 347.567 257.745 349.911 260.089C352.255 262.433 355.435 263.75 358.75 263.75H446.25C449.565 263.75 452.745 262.433 455.089 260.089C457.433 257.745 458.75 254.565 458.75 251.25V163.75C458.75 160.435 457.433 157.255 455.089 154.911C452.745 152.567 449.565 151.25 446.25 151.25ZM333.75 176.25H321.25V276.25C321.25 279.565 322.567 282.745 324.911 285.089C327.255 287.433 330.435 288.75 333.75 288.75H433.75V276.25H333.75M414.75 209.312L397.563 231.437L385.312 216.688L368.125 238.75H436.875L414.75 209.312Z" fill="#9B9999"/>
<rect x="2" y="2" width="776" height="436" stroke="#9B9999" stroke-width="4"/>
</g>
<defs>
<clipPath id="clip0_150_27">
<rect width="780" height="440" fill="white"/>
</clipPath>
</defs>
</svg>
