<svg width="780" height="440" viewBox="0 0 780 440" fill="none" xmlns="http://www.w3.org/2000/svg">
<g clip-path="url(#clip0_150_33)">
<rect width="780" height="440" fill="white"/>
<path d="M446.25 221.25H358.75V133.75H446.25M446.25 121.25H358.75C355.435 121.25 352.255 122.567 349.911 124.911C347.567 127.255 346.25 130.435 346.25 133.75V221.25C346.25 224.565 347.567 227.745 349.911 230.089C352.255 232.433 355.435 233.75 358.75 233.75H446.25C449.565 233.75 452.745 232.433 455.089 230.089C457.433 227.745 458.75 224.565 458.75 221.25V133.75C458.75 130.435 457.433 127.255 455.089 124.911C452.745 122.567 449.565 121.25 446.25 121.25ZM333.75 146.25H321.25V246.25C321.25 249.565 322.567 252.745 324.911 255.089C327.255 257.433 330.435 258.75 333.75 258.75H433.75V246.25H333.75M414.75 179.312L397.563 201.437L385.312 186.688L368.125 208.75H436.875L414.75 179.312Z" fill="#9B9999"/>
<rect y="380" width="780" height="60" fill="#E6E6E6" fill-opacity="0.82"/>
<rect x="2" y="2" width="776" height="436" stroke="#9B9999" stroke-width="4"/>
</g>
<defs>
<clipPath id="clip0_150_33">
<rect width="780" height="440" fill="white"/>
</clipPath>
</defs>
</svg>
