<svg width="780" height="440" viewBox="0 0 780 440" fill="none" xmlns="http://www.w3.org/2000/svg">
<g clip-path="url(#clip0_150_63)">
<rect width="780" height="440" fill="white"/>
<path d="M521.25 281.25H433.75V193.75H521.25M521.25 181.25H433.75C430.435 181.25 427.255 182.567 424.911 184.911C422.567 187.255 421.25 190.435 421.25 193.75V281.25C421.25 284.565 422.567 287.745 424.911 290.089C427.255 292.433 430.435 293.75 433.75 293.75H521.25C524.565 293.75 527.745 292.433 530.089 290.089C532.433 287.745 533.75 284.565 533.75 281.25V193.75C533.75 190.435 532.433 187.255 530.089 184.911C527.745 182.567 524.565 181.25 521.25 181.25ZM408.75 206.25H396.25V306.25C396.25 309.565 397.567 312.745 399.911 315.089C402.255 317.433 405.435 318.75 408.75 318.75H508.75V306.25H408.75M489.75 239.312L472.563 261.437L460.312 246.688L443.125 268.75H511.875L489.75 239.312Z" fill="#9B9999"/>
<rect x="150" width="630" height="60" fill="#E6E6E6" fill-opacity="0.82"/>
<rect y="444" width="440" height="150" transform="rotate(-90 0 444)" fill="#E0E0E0"/>
<path d="M407.375 12.625H373.625C371.75 12.625 369.875 14.5 369.875 16.375V42.625C369.875 43.6196 370.27 44.5734 370.973 45.2766C371.677 45.9799 372.63 46.375 373.625 46.375H407.375C409.25 46.375 411.125 44.5 411.125 42.625V16.375C411.125 14.5 409.25 12.625 407.375 12.625ZM377.375 38.875L383.938 30.4375L388.625 36.0625L395.188 27.625L403.625 38.875H377.375Z" fill="#9B9999"/>
<rect x="2" y="2" width="776" height="436" stroke="#9B9999" stroke-width="4"/>
</g>
<defs>
<clipPath id="clip0_150_63">
<rect width="780" height="440" fill="white"/>
</clipPath>
</defs>
</svg>
