<svg width="780" height="440" viewBox="0 0 780 440" fill="none" xmlns="http://www.w3.org/2000/svg">
<g clip-path="url(#clip0_150_42)">
<rect width="780" height="440" fill="white"/>
<path d="M521.25 221.25H433.75V133.75H521.25M521.25 121.25H433.75C430.435 121.25 427.255 122.567 424.911 124.911C422.567 127.255 421.25 130.435 421.25 133.75V221.25C421.25 224.565 422.567 227.745 424.911 230.089C427.255 232.433 430.435 233.75 433.75 233.75H521.25C524.565 233.75 527.745 232.433 530.089 230.089C532.433 227.745 533.75 224.565 533.75 221.25V133.75C533.75 130.435 532.433 127.255 530.089 124.911C527.745 122.567 524.565 121.25 521.25 121.25ZM408.75 146.25H396.25V246.25C396.25 249.565 397.567 252.745 399.911 255.089C402.255 257.433 405.435 258.75 408.75 258.75H508.75V246.25H408.75M489.75 179.312L472.563 201.437L460.312 186.688L443.125 208.75H511.875L489.75 179.312Z" fill="#9B9999"/>
<rect x="150" y="380" width="630" height="60" fill="#E6E6E6" fill-opacity="0.82"/>
<rect y="440" width="440" height="150" transform="rotate(-90 0 440)" fill="#E0E0E0"/>
<rect x="2" y="2" width="776" height="436" stroke="#9B9999" stroke-width="4"/>
</g>
<defs>
<clipPath id="clip0_150_42">
<rect width="780" height="440" fill="white"/>
</clipPath>
</defs>
</svg>
